<svg xmlns="http://www.w3.org/2000/svg" version="1.1" xmlns:xlink="http://www.w3.org/1999/xlink" xmlns:svgjs="http://svgjs.dev/svgjs" width="1000" height="623" viewBox="0 0 1000 623"><g transform="matrix(1,0,0,1,-0.6060606060606233,124.3611835357625)"><svg viewBox="0 0 396 247" data-background-color="#000000" preserveAspectRatio="xMidYMid meet" height="623" width="1000" xmlns="http://www.w3.org/2000/svg" xmlns:xlink="http://www.w3.org/1999/xlink"><g id="tight-bounds" transform="matrix(1,0,0,1,0.2400000000000091,-0.09999999999999432)"><svg viewBox="0 0 395.52 247.2" height="247.2" width="395.52"><g><svg></svg></g><g><svg viewBox="0 0 395.52 247.2" height="247.2" width="395.52"><g transform="matrix(1,0,0,1,75.54432000000001,49.77531305040401)"><svg viewBox="0 0 244.43135999999996 147.64937389919197" height="147.64937389919197" width="244.43135999999996"><g><svg viewBox="0 0 244.43135999999996 147.64937389919197" height="147.64937389919197" width="244.43135999999996"><g transform="matrix(1,0,0,1,0,109.32075046291533)"><svg viewBox="0 0 244.43135999999996 38.32862343627664" height="38.32862343627664" width="244.43135999999996"><g id="textblocktransform"><svg viewBox="0 0 244.43135999999996 38.32862343627664" height="38.32862343627664" width="244.43135999999996" id="textblock"><g><svg viewBox="0 0 244.43135999999996 38.32862343627664" height="38.32862343627664" width="244.43135999999996"><g transform="matrix(1,0,0,1,0,0)"><svg width="244.43135999999996" viewBox="2.049999952316284 -35.54999923706055 229.88999938964844 36.04999923706055" height="38.32862343627664" data-palette-color="#fdc500"><path d="M20-34.55L20-34.55Q12.25-34.55 12.25-19.6L12.25-19.6 12.25-15.65Q12.25-8.55 14.3-4.53 16.35-0.5 20.35-0.5L20.35-0.5Q25.85-0.5 30.45-11.2L30.45-11.2 31.35-11.2 31-0.05 30.45-0.05Q30.15-0.6 29.9-0.83 29.65-1.05 29.18-1.05 28.7-1.05 25.55-0.28 22.4 0.5 19.15 0.5L19.15 0.5Q11 0.5 6.53-3.9 2.05-8.3 2.05-17.13 2.05-25.95 6.73-30.75 11.4-35.55 19.3-35.55L19.3-35.55Q22.35-35.55 25.28-34.77 28.2-34 28.7-34 29.2-34 29.45-34.23 29.7-34.45 30-35L30-35 30.55-35 30.95-24.15 30.05-24.15Q27.8-29.2 25.43-31.88 23.05-34.55 20-34.55ZM51.55-0.95L55.1-0.95 51.45-11.75 41.55-11.75 37.7-0.95 41.45-0.95 41.45 0 33.8 0 33.8-0.95 36.15-0.95 48.9-35.3 53-35.3 65.6-0.95 67.9-0.95 67.9 0 51.55 0 51.55-0.95ZM51.05-12.85L46.7-25.95 42-12.85 51.05-12.85ZM83.95-0.55L83.95-0.55Q86.45-0.55 88.37-1.9 90.3-3.25 90.3-5.98 90.3-8.7 88.22-10.15 86.15-11.6 82.32-12.68 78.5-13.75 76.77-14.55 75.05-15.35 73.5-16.65L73.5-16.65Q70.4-19.25 70.4-24.7L70.4-24.7Q70.4-29.15 73.57-32.35 76.75-35.55 82.25-35.55L82.25-35.55Q84.9-35.55 87.77-34.77 90.65-34 91.35-34 92.05-34 92.6-35L92.6-35 93.15-35 93.5-24.9 92.7-24.9Q90.3-29.25 87.67-31.88 85.05-34.5 81.97-34.5 78.9-34.5 77.2-33.08 75.5-31.65 75.5-29.28 75.5-26.9 77.52-25.63 79.55-24.35 82.5-23.55 85.45-22.75 86.37-22.45 87.3-22.15 88.67-21.63 90.05-21.1 90.92-20.53 91.8-19.95 92.77-19.07 93.75-18.2 94.3-17.15L94.3-17.15Q95.65-14.75 95.65-11.45L95.65-11.45Q95.65-6.05 92.27-2.78 88.9 0.5 83.4 0.5L83.4 0.5Q80.55 0.5 76.87-0.25 73.2-1 72.8-1L72.8-1Q72.1-1 71.45 0.5L71.45 0.5 70.75 0.5 70.25-11.4 71.1-11.4Q73.3-7.05 76.72-3.8 80.15-0.55 83.95-0.55ZM97.74-35L127.24-35 127.74-22.45 126.79-22.45Q124.59-29.1 122.89-31.53 121.19-33.95 117.99-33.95L117.99-33.95 117.39-33.95 117.39-1.05 121.64-1.05 121.64 0 103.39 0 103.39-1.05 107.64-1.05 107.64-33.95 106.99-33.95Q103.79-33.95 102.04-31.43 100.29-28.9 98.19-22.45L98.19-22.45 97.24-22.45 97.74-35ZM130.64-34.05L130.64-35 145.59-35Q152.54-35 156.02-33.13 159.49-31.25 159.49-26.8L159.49-26.8Q159.49-19.95 151.24-18.6L151.24-18.6 151.24-18.5Q161.24-17.25 161.24-9.8L161.24-9.8Q161.24-4.35 157.14-2.18 153.04 0 145.34 0L145.34 0 130.64 0 130.64-0.95 133.89-0.95 133.89-34.05 130.64-34.05ZM144.79-17.7L143.64-17.7 143.64-0.95 145.99-0.95Q148.74-0.95 149.84-2.85 150.94-4.75 150.94-8.45L150.94-8.45 150.94-11.1Q150.94-14.4 149.59-16.05 148.24-17.7 144.79-17.7L144.79-17.7ZM145.24-34.05L143.64-34.05 143.64-18.65 144.94-18.65Q147.54-18.65 148.56-20.23 149.59-21.8 149.59-25.05L149.59-25.05 149.59-27.4Q149.59-31.1 148.69-32.58 147.79-34.05 145.24-34.05L145.24-34.05ZM187.59-15.45L187.59-15.45 187.59-19.15Q187.59-28.3 186.69-30.7L186.69-30.7Q185.69-33.45 183.84-34.1L183.84-34.1Q182.79-34.5 181.29-34.5 179.79-34.5 178.71-34.1 177.64-33.7 176.94-32.7 176.24-31.7 175.81-30.6 175.39-29.5 175.14-27.5L175.14-27.5Q174.84-24.6 174.84-18.95L174.84-18.95 174.84-15.35Q174.84-9.25 175.31-6.68 175.79-4.1 176.49-3L176.49-3Q178.04-0.55 181.29-0.55L181.29-0.55Q185.24-0.55 186.41-3.88 187.59-7.2 187.59-15.45ZM181.19 0.5Q172.84 0.5 168.71-4.03 164.59-8.55 164.59-17.13 164.59-25.7 169.01-30.63 173.44-35.55 181.54-35.55 189.64-35.55 193.76-30.88 197.89-26.2 197.89-17.6 197.89-9 193.71-4.25 189.54 0.5 181.19 0.5ZM231.94-0.95L231.94 0 214.84 0 214.84-0.95 218.14-0.95 210.69-14.15 202.74-0.95 208.04-0.95 208.04 0 197.69 0 197.69-0.95 201.04-0.95 209.79-15.65 199.34-34 196.64-34 196.64-35 213.49-35 213.49-34 210.09-34 216.84-21.9 224.39-34 219.19-34 219.19-35 229.44-35 229.44-34 226.14-34 217.69-20.5 229.04-0.95 231.94-0.95Z" opacity="1" transform="matrix(1,0,0,1,0,0)" fill="#fdc500" class="undefined-text-0" data-fill-palette-color="primary" id="text-0"></path></svg></g></svg></g></svg></g></svg></g><g transform="matrix(1,0,0,1,76.60377287488475,0)"><svg viewBox="0 0 91.22381425023043 91.22381425023043" height="91.22381425023043" width="91.22381425023043"><g><svg></svg></g><g id="icon-0"><svg viewBox="0 0 91.22381425023043 91.22381425023043" height="91.22381425023043" width="91.22381425023043"><g><path d="M0 45.612c0-25.191 20.421-45.612 45.612-45.612 25.191 0 45.612 20.421 45.612 45.612 0 25.191-20.421 45.612-45.612 45.612-25.191 0-45.612-20.421-45.612-45.612zM45.612 87.767c23.282 0 42.155-18.874 42.155-42.155 0-23.282-18.874-42.155-42.155-42.155-23.282 0-42.155 18.874-42.155 42.155 0 23.282 18.874 42.155 42.155 42.155z" data-fill-palette-color="tertiary" fill="#ffffff" stroke="transparent"></path></g><g transform="matrix(1,0,0,1,33.26149427815727,21.144270690892103)"><svg viewBox="0 0 24.70082569391588 48.935272868446226" height="48.935272868446226" width="24.70082569391588"><g><svg xmlns="http://www.w3.org/2000/svg" xmlns:xlink="http://www.w3.org/1999/xlink" version="1.1" x="0" y="0" viewBox="20.418994903564453 0.1100006103515625 50.42100143432617 99.88999938964844" enable-background="new 0 0 91.852 100" xml:space="preserve" height="48.935272868446226" width="24.70082569391588" class="icon-s-0" data-fill-palette-color="accent" id="s-0"><path d="M61.28 17.712c0.065-0.583 0.105-1.174 0.105-1.775 0-8.741-7.086-15.827-15.826-15.827-8.664 0-15.69 6.96-15.817 15.592h-0.067v5.217h23.879v4.818H29.676v5.105h23.879v4.818H29.676v5.104h23.879v4.817H29.676v10.725h0.065c0 0.062-0.009 0.121-0.009 0.182 0 8.743 7.086 15.829 15.828 15.829 8.74 0 15.826-7.086 15.826-15.829 0-0.601-0.04-1.19-0.105-1.774V17.712z" fill="#fdc500" data-fill-palette-color="accent"></path><path d="M70.84 56.357V45.476c0-1.656-1.342-2.998-2.998-2.998s-2.998 1.342-2.998 2.998v10.882c0 10.594-8.62 19.213-19.215 19.213s-19.213-8.619-19.213-19.213V45.476c0-1.656-1.342-2.998-2.998-2.998-1.656 0-2.999 1.342-2.999 2.998v10.882c0 12.823 9.627 23.434 22.032 25.002v12.645H27.139V100h37.476v-5.996H48.448V81.405C61.026 79.998 70.84 69.305 70.84 56.357z" fill="#fdc500" data-fill-palette-color="accent"></path></svg></g></svg></g></svg></g></svg></g><g></g></svg></g></svg></g><g><path d="M107.934 40.727A122.216 122.216 0 0 1 287.586 40.727L284.129 40.727A118.759 118.759 0 0 0 111.391 40.727L107.934 40.727M107.934 206.473A122.216 122.216 0 0 0 287.586 206.473L284.129 206.473A118.759 118.759 0 0 1 111.391 206.473L107.934 206.473" fill="#ffffff" stroke="transparent" data-fill-palette-color="tertiary"></path></g></svg></g><defs><mask id="8d9ed40a-4713-4e69-a1c8-ac8cca103e92"><rect width="640" height="400" fill="white"></rect><rect width="348.05760000000004" height="73.04279566208612" fill="black" y="87.07860216895693" x="23.731199999999973" id="transform-me"></rect></mask></defs></svg><rect width="395.52" height="247.2" fill="none" stroke="none" visibility="hidden"></rect></g></svg></g></svg>